<?xml version="1.0" encoding="utf-8"?>
<!-- Generator: Adobe Illustrator 23.0.3, SVG Export Plug-In . SVG Version: 6.00 Build 0)  -->
<svg version="1.1" id="Layer_1" xmlns="http://www.w3.org/2000/svg" xmlns:xlink="http://www.w3.org/1999/xlink" x="0px" y="0px"
	 viewBox="0 0 512 512" style="enable-background:new 0 0 512 512;" xml:space="preserve">
<style type="text/css">
	.st0{fill:#00E6B2;}
	.st1{fill:#FF18A4;}
	.st2{fill:#5B25B9;}
</style>
<g>
	<circle class="st0" cx="426.7" cy="135" r="72.5"/>
	<circle class="st1" cx="186.2" cy="207.5" r="75.4"/>
	<circle class="st2" cx="216.9" cy="413" r="37.7"/>
</g>
<g id="Outline">
	<g>
		<circle cx="56" cy="56" r="8"/>
		<circle cx="88" cy="56" r="8"/>
		<circle cx="120" cy="56" r="8"/>
		<path d="M192,48c-4.4,0-8,3.6-8,8s3.6,8,8,8h72c4.4,0,8-3.6,8-8s-3.6-8-8-8H192z"/>
		<path d="M312,48c-4.4,0-8,3.6-8,8s3.6,8,8,8h120c4.4,0,8-3.6,8-8s-3.6-8-8-8H312z"/>
		<path d="M488,288c-4.4,0-8,3.6-8,8v184H32V192c0-4.4-3.6-8-8-8s-8,3.6-8,8v296c0,4.4,3.6,8,8,8h464c4.4,0,8-3.6,8-8V296
			C496,291.6,492.4,288,488,288z"/>
		<path d="M488,16H24c-4.4,0-8,3.6-8,8v136c0,4.4,3.6,8,8,8s8-3.6,8-8V96h424c4.4,0,8-3.6,8-8s-3.6-8-8-8H160V32h320v232
			c0,4.4,3.6,8,8,8s8-3.6,8-8V24C496,19.6,492.4,16,488,16z M144,80H32V32h112V80z"/>
		<path d="M456,128c0-4.4-3.6-8-8-8H64c-4.4,0-8,3.6-8,8v144c0,4.4,3.6,8,8,8h384c4.4,0,8-3.6,8-8V128z M376,144c0,4.4-3.6,8-8,8
			s-8-3.6-8-8s3.6-8,8-8S376,139.6,376,144z M112,240c-4.4,0-8-3.6-8-8c0.7-8.3,3.4-16.4,8-23.4c4.6,7,7.3,15,8,23.4
			C120,236.4,116.4,240,112,240z M149,264l43-86.1l43,86.1H149z M253,264l-20-40l15-30.1l35,70.1H253z M320,240c-4.4,0-8-3.6-8-8
			c0.7-8.3,3.4-16.4,8-23.4c4.6,7,7.3,15,8,23.4C328,236.4,324.4,240,320,240z M384,240c-4.4,0-8-3.6-8-8c0.7-8.3,3.4-16.4,8-23.4
			c4.6,7,7.3,15,8,23.4C392,236.4,388.4,240,384,240z M440,264h-48v-9.4c9.6-3.4,16-12.4,16-22.6c0-9.3-7.5-40-24-40s-24,30.7-24,40
			c0,10.1,6.4,19.2,16,22.6v9.4h-48v-9.4c9.6-3.4,16-12.4,16-22.6c0-9.3-7.5-40-24-40s-24,30.7-24,40c0,10.1,6.4,19.2,16,22.6v9.4
			h-11l-45.8-91.6c-2-3.9-6.8-5.5-10.8-3.5c-1.5,0.8-2.7,2-3.5,3.5L224,206.1l-24.9-49.7c-2-3.9-6.8-5.5-10.8-3.5
			c-1.5,0.8-2.7,2-3.5,3.5L131,264h-11v-9.4c9.6-3.4,16-12.4,16-22.6c0-9.3-7.5-40-24-40s-24,30.7-24,40c0,10.1,6.4,19.2,16,22.6
			v9.4H72V136h273.4c-4.5,12.5,1.9,26.2,14.4,30.7c12.5,4.5,26.2-1.9,30.7-14.4c1.9-5.3,1.9-11.1,0-16.4H440V264z"/>
		<circle cx="328" cy="160" r="8"/>
		<circle cx="352" cy="184" r="8"/>
		<circle cx="400" cy="176" r="8"/>
		<path d="M240,304H128c-4.4,0-8,3.6-8,8s3.6,8,8,8h112c4.4,0,8-3.6,8-8S244.4,304,240,304z"/>
		<path d="M240,336H72c-4.4,0-8,3.6-8,8s3.6,8,8,8h168c4.4,0,8-3.6,8-8S244.4,336,240,336z"/>
		<path d="M240,368H72c-4.4,0-8,3.6-8,8s3.6,8,8,8h168c4.4,0,8-3.6,8-8S244.4,368,240,368z"/>
		<path d="M240,400H72c-4.4,0-8,3.6-8,8s3.6,8,8,8h168c4.4,0,8-3.6,8-8S244.4,400,240,400z"/>
		<path d="M240,432H72c-4.4,0-8,3.6-8,8s3.6,8,8,8h168c4.4,0,8-3.6,8-8S244.4,432,240,432z"/>
		<path d="M272,384h64c4.4,0,8-3.6,8-8v-64c0-4.4-3.6-8-8-8h-64c-4.4,0-8,3.6-8,8v64C264,380.4,267.6,384,272,384z M328,320v48h-48
			v-16h24c4.4,0,8-3.6,8-8s-3.6-8-8-8h-24v-16H328z"/>
		<path d="M448,304h-64c-4.4,0-8,3.6-8,8s3.6,8,8,8h64c4.4,0,8-3.6,8-8S452.4,304,448,304z"/>
		<path d="M448,336h-80c-4.4,0-8,3.6-8,8s3.6,8,8,8h80c4.4,0,8-3.6,8-8S452.4,336,448,336z"/>
		<path d="M448,368h-80c-4.4,0-8,3.6-8,8s3.6,8,8,8h80c4.4,0,8-3.6,8-8S452.4,368,448,368z"/>
		<path d="M448,400H272c-4.4,0-8,3.6-8,8s3.6,8,8,8h176c4.4,0,8-3.6,8-8S452.4,400,448,400z"/>
		<path d="M448,432H272c-4.4,0-8,3.6-8,8s3.6,8,8,8h176c4.4,0,8-3.6,8-8S452.4,432,448,432z"/>
		<path d="M123.4,153.4c-9.4-4.8-20.8-3.1-28.3,4.2c-2.9,3.4-2.5,8.4,0.9,11.3c3,2.6,7.4,2.6,10.4,0c3.1-3.1,8.2-3.2,11.3,0
			c0,0,0,0,0,0c1.5,1.5,3.5,2.3,5.6,2.3c2.1,0,4.2-0.8,5.7-2.3c3.1-3.1,8.2-3.2,11.3,0c0,0,0,0,0,0c1.5,1.5,3.5,2.3,5.6,2.3
			c2.1,0,4.2-0.8,5.7-2.3c3.1-3.1,3.1-8.2,0-11.3C144.1,150.2,132.7,148.5,123.4,153.4z"/>
	</g>
</g>
</svg>
