<?xml version="1.0" encoding="utf-8"?><svg version="1.1" id="Layer_1" xmlns="http://www.w3.org/2000/svg" xmlns:xlink="http://www.w3.org/1999/xlink" x="0px" y="0px" viewBox="0 0 122.88 114.93" style="enable-background:new 0 0 122.88 114.93" xml:space="preserve"><g><path d="M37.56,55.69c0.15,0.07,0.29,0.17,0.39,0.29l4.63,5.38c1.86,2.16,3.81,4.36,6.23,5.97c2.33,1.56,5.16,2.61,8.9,2.62 c4.05,0.01,7.02-1.09,9.42-2.73c2.5-1.71,4.47-4.05,6.41-6.38l2.53-3.05c0.31-0.38,0.42-0.5,0.53-0.63 c0.31-0.36,0.66-0.77,1.01-1.2c0.09-0.11,0.2-0.2,0.33-0.27c0.41-1.35,0.73-2.76,0.95-4.25c0.72-4.82,0.74-8.56-1.43-13 c-1.87-3.83-4.52-5.81-7.39-7.24c3.11,3.47,5.67,6.83,5,9.59c-3.79-4.17-7.71-7.8-11.76-10.81c-8.47-4.38-13.45-10.3-15.67-17.48 C35.08,25.06,32.9,39.73,37.56,55.69L37.56,55.69z M84.73,92.2l4.54-4.76l6.55,6.3l10.2-13.59l5.07,4.09 c-2.39,2.96-10.91,14.65-12.77,16.17c-1.53,1.25-3.73,1.25-5.15-0.12L84.73,92.2L84.73,92.2z M41.68,74.62 c6.32,13.18,25.49,13.65,31.54,0.08l-4.09-5.24l-0.5-0.73c-2.8,1.86-6.25,3.08-10.92,3.07c-4.48-0.01-7.85-1.26-10.62-3.1 c-0.72-0.48-1.39-0.99-2.03-1.54c-0.44,1.22-0.99,2.67-1.59,4.02C42.9,72.49,42.28,73.73,41.68,74.62L41.68,74.62L41.68,74.62z M79.14,57.69c-0.13,0.15-0.26,0.3-0.38,0.44l-0.52,0.61l-2.53,3.05c-1.61,1.94-3.25,3.88-5.23,5.54l0.56,0.82 c1.16,1.7,2.33,3.4,3.83,4.92c0.05,0.05,0.09,0.1,0.13,0.16c0.89,0.63,1.96,1.2,3.15,1.72c0.68-0.89,1.42-1.74,2.21-2.53 c4.51-4.51,10.73-7.29,17.61-7.29c6.88,0,13.1,2.79,17.61,7.29c4.51,4.51,7.3,10.73,7.3,17.61c0,6.88-2.79,13.1-7.3,17.61 c-4.51,4.51-10.73,7.29-17.61,7.29c-6.88,0-13.1-2.79-17.61-7.29c-4.51-4.51-7.3-10.73-7.3-17.61c0-4.98,1.46-9.62,3.98-13.51 c-0.72-0.31-1.43-0.67-2.2-1.11c-3.06,14.18-27.23,17.6-34.69,0.81c-5.26,2.65-10.62,4.66-16.74,5.61l3.55,25.69H5.76 c-10.52-0.8-4.03-16-0.86-20.19c1.52-2.01,3.41-3.49,5.5-4.66c6.28-3.5,22.63-4.66,29.41-9.39l1.55-3.02l1.86-4.83 c-0.99-1-1.9-2.05-2.79-3.08l-3.96-4.6l-2.95,0.08l-5.61,0.15c-4.82-5.54-4.52-17.45-4.05-24.32C26.1,19.82,31.44,9.87,40.14,4.12 c5.89-3.9,9.41-4.11,16.3-4.12c6.01,0,9.7-0.13,14.82,3.24c16.71,11,21.88,36.96,13.72,54.45H79.14L79.14,57.69L79.14,57.69z M112.86,75.13c-3.81-3.81-9.07-6.17-14.89-6.17c-5.81,0-11.08,2.36-14.89,6.17c-3.81,3.81-6.17,9.07-6.17,14.89 c0,5.81,2.36,11.08,6.17,14.89c3.81,3.81,9.07,6.17,14.89,6.17c5.81,0,11.08-2.36,14.89-6.17c3.81-3.81,6.17-9.07,6.17-14.89 C119.03,84.21,116.67,78.94,112.86,75.13L112.86,75.13L112.86,75.13z"/></g></svg>