<?xml version="1.0" encoding="iso-8859-1"?>
<!-- Generator: Adobe Illustrator 21.1.0, SVG Export Plug-In . SVG Version: 6.00 Build 0)  -->
<svg version="1.1" id="online-account-sign-access-member-laptop-website"
	 xmlns="http://www.w3.org/2000/svg" xmlns:xlink="http://www.w3.org/1999/xlink" x="0px" y="0px" viewBox="0 0 96 96"
	 style="enable-background:new 0 0 96 96;" xml:space="preserve">
<linearGradient id="SVGID_1_" gradientUnits="userSpaceOnUse" x1="14.0589" y1="81.9411" x2="81.9411" y2="14.0589">
	<stop  offset="0" style="stop-color:#EECDA3"/>
	<stop  offset="0.5005" style="stop-color:#EF629F"/>
	<stop  offset="1" style="stop-color:#A046D6"/>
</linearGradient>
<circle style="fill:url(#SVGID_1_);" cx="48" cy="48" r="48"/>
<path style="fill:#FFFFFF;" d="M76,60.938V19c0-0.552-0.447-1-1-1H21c-0.553,0-1,0.448-1,1v41.938l-1.992,15.938
	c-0.036,0.284,0.053,0.57,0.242,0.786C18.44,77.877,18.713,78,19,78h58c0.287,0,0.56-0.123,0.75-0.338
	c0.189-0.216,0.278-0.502,0.242-0.786L76,60.938z M22,20h52v40H22V20z M20.133,76l1.75-14h52.234l1.75,14H20.133z"/>
<path style="fill:#FFFFFF;" d="M66,26H30c-0.553,0-1,0.448-1,1v24c0,0.552,0.447,1,1,1h36c0.553,0,1-0.448,1-1V27
	C67,26.448,66.553,26,66,26z M65,50H31V28h34V50z"/>
<path style="fill:#FFFFFF;" d="M34,44h12c0.553,0,1-0.448,1-1c0-2.801-1.658-5.216-4.04-6.334C43.599,35.957,44,35.028,44,34
	c0-2.206-1.794-4-4-4c-2.206,0-4,1.794-4,4c0,1.028,0.4,1.957,1.04,2.666C34.658,37.784,33,40.199,33,43C33,43.552,33.447,44,34,44z
	 M38,34c0-1.103,0.897-2,2-2c1.102,0,2,0.897,2,2s-0.898,2-2,2C38.897,36,38,35.103,38,34z M40,38c2.415,0,4.435,1.721,4.899,4
	h-9.799C35.565,39.721,37.585,38,40,38z"/>
<path style="fill:#FFFFFF;" d="M50,39h12c0.553,0,1-0.448,1-1v-4c0-0.552-0.447-1-1-1H50c-0.553,0-1,0.448-1,1v4
	C49,38.552,49.447,39,50,39z M51,35h10v2H51V35z"/>
<rect x="33" y="46" style="fill:#FFFFFF;" width="30" height="2"/>
<rect x="49" y="42" style="fill:#FFFFFF;" width="14" height="2"/>
<rect x="45" y="55" style="fill:#FFFFFF;" width="6" height="2"/>
<rect x="65" y="68" style="fill:#FFFFFF;" width="6" height="2"/>
<rect x="70" y="22" style="fill:#FFFFFF;" width="2" height="2"/>
<rect x="66" y="22" style="fill:#FFFFFF;" width="2" height="2"/>
<rect x="62" y="22" style="fill:#FFFFFF;" width="2" height="2"/>
<path style="fill:#FFFFFF;" d="M24,23v3h2v-2h2v-2h-3C24.447,22,24,22.448,24,23z"/>
<path style="fill:#FFFFFF;" d="M70,55h-2v2h3c0.553,0,1-0.448,1-1v-3h-2V55z"/>
<path style="fill:#FFFFFF;" d="M26,53h-2v3c0,0.552,0.447,1,1,1h3v-2h-2V53z"/>
<rect x="24" y="68" style="fill:#FFFFFF;" width="3" height="2"/>
<rect x="29" y="68" style="fill:#FFFFFF;" width="3" height="2"/>
<rect x="34" y="68" style="fill:#FFFFFF;" width="3" height="2"/>
<rect x="39" y="68" style="fill:#FFFFFF;" width="3" height="2"/>
<rect x="44" y="68" style="fill:#FFFFFF;" width="3" height="2"/>
<rect x="49" y="68" style="fill:#FFFFFF;" width="3" height="2"/>
<rect x="54" y="68" style="fill:#FFFFFF;" width="3" height="2"/>
<rect x="59" y="68" style="fill:#FFFFFF;" width="3" height="2"/>
<rect x="26" y="64" style="fill:#FFFFFF;" width="3" height="2"/>
<rect x="31" y="64" style="fill:#FFFFFF;" width="3" height="2"/>
<rect x="36" y="64" style="fill:#FFFFFF;" width="3" height="2"/>
<rect x="41" y="64" style="fill:#FFFFFF;" width="3" height="2"/>
<rect x="46" y="64" style="fill:#FFFFFF;" width="3" height="2"/>
<rect x="51" y="64" style="fill:#FFFFFF;" width="3" height="2"/>
<rect x="56" y="64" style="fill:#FFFFFF;" width="3" height="2"/>
<rect x="61" y="64" style="fill:#FFFFFF;" width="3" height="2"/>
<rect x="66" y="64" style="fill:#FFFFFF;" width="3" height="2"/>
<rect x="23" y="72" style="fill:#FFFFFF;" width="3" height="2"/>
<rect x="28" y="72" style="fill:#FFFFFF;" width="3" height="2"/>
<rect x="33" y="72" style="fill:#FFFFFF;" width="3" height="2"/>
<rect x="38" y="72" style="fill:#FFFFFF;" width="3" height="2"/>
<rect x="43" y="72" style="fill:#FFFFFF;" width="3" height="2"/>
<rect x="48" y="72" style="fill:#FFFFFF;" width="3" height="2"/>
<rect x="53" y="72" style="fill:#FFFFFF;" width="3" height="2"/>
<rect x="58" y="72" style="fill:#FFFFFF;" width="3" height="2"/>
<rect x="63" y="72" style="fill:#FFFFFF;" width="3" height="2"/>
<rect x="68" y="72" style="fill:#FFFFFF;" width="5" height="2"/>
</svg>
