<?xml version="1.0" encoding="utf-8"?>
<!-- Generator: Adobe Illustrator 23.0.3, SVG Export Plug-In . SVG Version: 6.00 Build 0)  -->
<svg version="1.1" id="Layer_1" xmlns="http://www.w3.org/2000/svg" xmlns:xlink="http://www.w3.org/1999/xlink" x="0px" y="0px"
	 viewBox="0 0 512 512" style="enable-background:new 0 0 512 512;" xml:space="preserve">
<style type="text/css">
	.st0{fill:url(#SVGID_1_);}
	.st1{fill:#FFFFFF;}
</style>
<linearGradient id="SVGID_1_" gradientUnits="userSpaceOnUse" x1="2.945" y1="256" x2="509.055" y2="256">
	<stop  offset="0" style="stop-color:#00CCFF"/>
	<stop  offset="1" style="stop-color:#006E8A"/>
</linearGradient>
<circle class="st0" cx="256" cy="256" r="253.1"/>
<g id="Outline">
	<g>
		<circle class="st1" cx="118.9" cy="118.9" r="5.5"/>
		<circle class="st1" cx="140.8" cy="118.9" r="5.5"/>
		<circle class="st1" cx="162.8" cy="118.9" r="5.5"/>
		<path class="st1" d="M212.1,113.4c-3,0-5.5,2.5-5.5,5.5s2.5,5.5,5.5,5.5h49.4c3,0,5.5-2.5,5.5-5.5s-2.5-5.5-5.5-5.5H212.1z"/>
		<path class="st1" d="M294.4,113.4c-3,0-5.5,2.5-5.5,5.5s2.5,5.5,5.5,5.5h82.3c3,0,5.5-2.5,5.5-5.5s-2.5-5.5-5.5-5.5H294.4z"/>
		<path class="st1" d="M415,277.9c-3,0-5.5,2.5-5.5,5.5v126.1H102.4V212.1c0-3-2.5-5.5-5.5-5.5s-5.5,2.5-5.5,5.5V415
			c0,3,2.5,5.5,5.5,5.5H415c3,0,5.5-2.5,5.5-5.5V283.4C420.5,280.4,418.1,277.9,415,277.9z"/>
		<path class="st1" d="M415,91.5H97c-3,0-5.5,2.5-5.5,5.5v93.2c0,3,2.5,5.5,5.5,5.5s5.5-2.5,5.5-5.5v-43.9h290.7
			c3,0,5.5-2.5,5.5-5.5c0-3-2.5-5.5-5.5-5.5H190.2v-32.9h219.4v159c0,3,2.5,5.5,5.5,5.5s5.5-2.5,5.5-5.5V97
			C420.5,93.9,418.1,91.5,415,91.5z M179.2,135.3h-76.8v-32.9h76.8V135.3z"/>
		<path class="st1" d="M393.1,168.3c0-3-2.5-5.5-5.5-5.5H124.4c-3,0-5.5,2.5-5.5,5.5V267c0,3,2.5,5.5,5.5,5.5h263.2
			c3,0,5.5-2.5,5.5-5.5V168.3z M338.3,179.2c0,3-2.5,5.5-5.5,5.5s-5.5-2.5-5.5-5.5s2.5-5.5,5.5-5.5S338.3,176.2,338.3,179.2z
			 M157.3,245c-3,0-5.5-2.5-5.5-5.5c0.4-5.7,2.3-11.2,5.5-16c3.2,4.8,5,10.3,5.5,16C162.8,242.6,160.3,245,157.3,245z M182.6,261.5
			l29.5-59l29.5,59H182.6z M253.9,261.5l-13.7-27.4l10.3-20.6l24,48H253.9z M299.9,245c-3,0-5.5-2.5-5.5-5.5
			c0.4-5.7,2.3-11.2,5.5-16c3.2,4.8,5,10.3,5.5,16C305.4,242.6,302.9,245,299.9,245z M343.7,245c-3,0-5.5-2.5-5.5-5.5
			c0.4-5.7,2.3-11.2,5.5-16c3.2,4.8,5,10.3,5.5,16C349.2,242.6,346.8,245,343.7,245z M382.1,261.5h-32.9V255
			c6.6-2.3,10.9-8.5,11-15.5c0-6.4-5.2-27.4-16.5-27.4s-16.5,21.1-16.5,27.4c0,7,4.4,13.1,11,15.5v6.5h-32.9V255
			c6.6-2.3,10.9-8.5,11-15.5c0-6.4-5.2-27.4-16.5-27.4s-16.5,21.1-16.5,27.4c0,7,4.4,13.1,11,15.5v6.5h-7.6l-31.4-62.8
			c-1.4-2.7-4.7-3.8-7.4-2.4c-1,0.5-1.9,1.4-2.4,2.4l-11.6,23.1L217,187.7c-1.4-2.7-4.7-3.8-7.4-2.4c-1,0.5-1.9,1.4-2.4,2.4
			l-36.9,73.8h-7.6V255c6.6-2.3,10.9-8.5,11-15.5c0-6.4-5.2-27.4-16.5-27.4s-16.5,21.1-16.5,27.4c0,7,4.4,13.1,11,15.5v6.5h-21.9
			v-87.7h187.5c-3.1,8.5,1.3,18,9.9,21.1c8.5,3.1,18-1.3,21.1-9.9c1.3-3.6,1.3-7.6,0-11.2h33.9V261.5z"/>
		<circle class="st1" cx="305.4" cy="190.2" r="5.5"/>
		<circle class="st1" cx="321.8" cy="206.6" r="5.5"/>
		<circle class="st1" cx="354.7" cy="201.2" r="5.5"/>
		<path class="st1" d="M245,288.9h-76.8c-3,0-5.5,2.5-5.5,5.5s2.5,5.5,5.5,5.5H245c3,0,5.5-2.5,5.5-5.5S248.1,288.9,245,288.9z"/>
		<path class="st1" d="M245,310.8H129.9c-3,0-5.5,2.5-5.5,5.5s2.5,5.5,5.5,5.5H245c3,0,5.5-2.5,5.5-5.5S248.1,310.8,245,310.8z"/>
		<path class="st1" d="M245,332.8H129.9c-3,0-5.5,2.5-5.5,5.5s2.5,5.5,5.5,5.5H245c3,0,5.5-2.5,5.5-5.5S248.1,332.8,245,332.8z"/>
		<path class="st1" d="M245,354.7H129.9c-3,0-5.5,2.5-5.5,5.5s2.5,5.5,5.5,5.5H245c3,0,5.5-2.5,5.5-5.5S248.1,354.7,245,354.7z"/>
		<path class="st1" d="M245,376.7H129.9c-3,0-5.5,2.5-5.5,5.5s2.5,5.5,5.5,5.5H245c3,0,5.5-2.5,5.5-5.5S248.1,376.7,245,376.7z"/>
		<path class="st1" d="M267,343.7h43.9c3,0,5.5-2.5,5.5-5.5v-43.9c0-3-2.5-5.5-5.5-5.5H267c-3,0-5.5,2.5-5.5,5.5v43.9
			C261.5,341.3,263.9,343.7,267,343.7z M305.4,299.9v32.9h-32.9v-11h16.5c3,0,5.5-2.5,5.5-5.5s-2.5-5.5-5.5-5.5h-16.5v-11H305.4z"/>
		<path class="st1" d="M387.6,288.9h-43.9c-3,0-5.5,2.5-5.5,5.5s2.5,5.5,5.5,5.5h43.9c3,0,5.5-2.5,5.5-5.5S390.7,288.9,387.6,288.9z
			"/>
		<path class="st1" d="M387.6,310.8h-54.8c-3,0-5.5,2.5-5.5,5.5s2.5,5.5,5.5,5.5h54.8c3,0,5.5-2.5,5.5-5.5S390.7,310.8,387.6,310.8z
			"/>
		<path class="st1" d="M387.6,332.8h-54.8c-3,0-5.5,2.5-5.5,5.5s2.5,5.5,5.5,5.5h54.8c3,0,5.5-2.5,5.5-5.5S390.7,332.8,387.6,332.8z
			"/>
		<path class="st1" d="M387.6,354.7H267c-3,0-5.5,2.5-5.5,5.5s2.5,5.5,5.5,5.5h120.7c3,0,5.5-2.5,5.5-5.5S390.7,354.7,387.6,354.7z"
			/>
		<path class="st1" d="M387.6,376.7H267c-3,0-5.5,2.5-5.5,5.5s2.5,5.5,5.5,5.5h120.7c3,0,5.5-2.5,5.5-5.5S390.7,376.7,387.6,376.7z"
			/>
		<path class="st1" d="M165.1,185.7c-6.4-3.3-14.2-2.1-19.4,2.9c-2,2.3-1.7,5.8,0.6,7.7c2.1,1.8,5.1,1.8,7.1,0
			c2.1-2.2,5.6-2.2,7.8,0c0,0,0,0,0,0c1,1,2.4,1.6,3.8,1.6c1.5,0,2.9-0.6,3.9-1.6c2.1-2.2,5.6-2.2,7.8,0c0,0,0,0,0,0
			c1,1,2.4,1.6,3.8,1.6c1.5,0,2.9-0.6,3.9-1.6c2.1-2.1,2.1-5.6,0-7.7C179.3,183.5,171.5,182.3,165.1,185.7z"/>
	</g>
</g>
</svg>
