<?xml version="1.0" encoding="utf-8"?>
<!-- Generator: Adobe Illustrator 23.0.2, SVG Export Plug-In . SVG Version: 6.00 Build 0)  -->
<svg version="1.1" id="Layer_1" xmlns="http://www.w3.org/2000/svg" xmlns:xlink="http://www.w3.org/1999/xlink" x="0px" y="0px"
	 viewBox="0 0 232.1331 194.896" enable-background="new 0 0 232.1331 194.896" xml:space="preserve">
<g>
	<path d="M112.6329,93.4298v3.6161h47.3467v-4h-28.5092c0.4459-0.678,0.7826-1.442,0.9515-2.2866
		c0.0447-0.2233,0.0768-0.4461,0.0978-0.6679l-24.9789,2.32L112.6329,93.4298z"/>
	<path d="M60.3922,149.6572v-1.77c14.8483-0.9787,26-5.1194,26-10.0803c0-4.8071-46.7685-5.5518-61.2655-2.2347l-11.2108-29.855
		c4.7801,7.4576,9.7059,11.6863,13.0232,10.4407c5.3257-1.9998-17.6995-63.3194-23.0251-61.3196
		c-4.3407,1.6299-4.5862,12.1279-1.0864,25.1234c-0.3951-0.0527-0.8063-0.0229-1.2059,0.1272
		c-1.2925,0.4854-1.9468,1.9268-1.4614,3.2192l20.8574,55.5469c0.0574,0.1526,0.1318,0.2929,0.214,0.4269
		c1.9564,4.2897,12.3118,7.7255,25.6605,8.6053v1.77h4.2505v21.0532l-29.25,9v3.6833c-1.8743,0.9243-3.1671,2.8486-3.1671,5.0798
		c0,3.1296,2.537,5.6666,5.6666,5.6666c3.1296,0,5.6667-2.537,5.6667-5.6666c0-2.2261-1.2867-4.1469-3.1541-5.0735l24.2379-7.4578
		v7.4515c-1.8743,0.9243-3.1671,2.8486-3.1671,5.0798c0,3.1296,2.537,5.6666,5.6666,5.6666c3.1296,0,5.6667-2.537,5.6667-5.6666
		c0-2.2308-1.2923-4.155-3.1662-5.0794v-7.452l24.2374,7.4576c-1.8676,0.9266-3.1545,2.8475-3.1545,5.0737
		c0,3.1296,2.537,5.6666,5.6666,5.6666c3.1296,0,5.6667-2.537,5.6667-5.6666c0-2.2308-1.2923-4.155-3.1662-5.0794v-3.6838l-29.25-9
		v-21.0532H60.3922z"/>
	<path d="M133.0452,72.3987l-12.2135-17.2758l-3.5384,2.5015l10.7509,15.207l4.3141-0.4008
		C132.5881,72.4092,132.817,72.4023,133.0452,72.3987z"/>
	<path d="M139.2914,87.5142l4.2656,3.5059l-2.302-6.3455c-0.3293,0.7617-0.766,1.4821-1.3107,2.1384
		C139.7386,87.0609,139.5191,87.2928,139.2914,87.5142z"/>
	<path d="M109.9552,123.4556c-0.5693-4.1387-3.6523-7.4883-7.7305-8.3975l-28.3181-6.3165
		c0.644-7.0704,2.1658-15.9808,5.7838-26.4608L63.5547,61.1602c-1.4268-1.8677-2.041-4.1797-1.7295-6.5093
		c0.3115-2.3301,1.5127-4.3989,3.3799-5.8257c1.5479-1.1826,3.3936-1.8076,5.3379-1.8076c2.7686,0,5.3193,1.2603,6.998,3.4585
		l19.293,25.2544l0.6386-0.0593L83.0665,42.2686c-0.688-1.5942-1.9399-2.7669-3.4196-3.3979
		c-8.132-5.0579-19.0292-3.1838-24.3276,9.2832c-5.3809,12.6559,7.0886,20.5614-12.4479,52.9301
		c-10.3216,17.1011,6.3771,24.636,18.859,25.4097c0.1418,0.0382,0.2793,0.085,0.4241,0.1173l28.9336,6.4541l7.3027,53.1152
		c0.6895,5.0098,4.9766,8.6396,9.8945,8.6387c0.4531,0,0.9131-0.0303,1.375-0.0938c1.388-0.191,2.6685-0.6603,3.7968-1.3406
		v-44.4611L109.9552,123.4556z"/>
	<path d="M95.7793,78.1382L75.7129,51.8721c-2.1787-2.8525-6.2588-3.3994-9.1113-1.2192c-2.8525,2.1792-3.3984,6.2583-1.2188,9.1108
		l22.25,29.125c1.2363,1.6182,3.1504,2.5542,5.1641,2.5542c0.2002,0,0.4014-0.0093,0.6025-0.0278l40.375-3.75
		c3.5742-0.332,6.2021-3.499,5.8701-7.0732c-0.332-3.5747-3.4814-6.2065-7.0732-5.8711L95.7793,78.1382z"/>
	<path d="M96.6085,23.2002c-4.835,2.7896-10.3252,4.0474-14.7803,4.0474c-2.0511,0-3.8784-0.2693-5.3263-0.7755
		c1.7628,9.8137,10.2057,17.3841,20.5663,17.6696c11.7805,0.3245,21.5967-8.8935,22.0633-20.6362
		C114.7906,21.6672,104.8416,18.4521,96.6085,23.2002z"/>
	<path d="M75.0196,22.0259v0.0005c-0.0068,0.2656-0.0293,1.0728,1.2119,1.8125C79.6427,25.8745,88.379,25.293,95.46,21.208
		c9.2637-5.3452,20.2793-1.6665,24.8213,0.2891c-0.0665-1.3275-0.2545-2.6363-0.5474-3.9169
		c-8.561-6.1983-17.7682-5.5762-17.7682-5.5762c6.2973-2.6849,12.7849-0.726,16.0034,0.6234
		c-0.8694-1.7593-1.9651-3.4161-3.2864-4.9203c-4.1445-4.7197-10.1221-7.5259-16.3984-7.6982C98.0694,0.0029,97.8556,0,97.6417,0
		c-5.8115,0-11.3115,2.1875-15.5508,6.1987C77.6964,10.3579,75.1856,15.979,75.0196,22.0259z"/>
	<polygon points="212.8831,194.896 219.3831,194.896 219.3831,114.6012 224.8001,114.6012 224.8001,105.7679 232.1331,105.7679 
		232.1331,100.7679 103.7066,100.7679 103.7066,105.7679 111.0401,105.7679 111.0401,114.6012 116.4566,114.6012 116.4566,194.896 
		122.9566,194.896 122.9566,182.726 212.8831,182.726 	"/>
</g>
</svg>
